<svg width="61" height="60" viewBox="0 0 61 60" fill="none" xmlns="http://www.w3.org/2000/svg">
<g clip-path="url(#clip0_257_3084)">
<path d="M31.7231 12.3002H38.3464L28.2087 1.63574V8.77223C28.2087 10.7055 29.7767 12.3003 31.723 12.3003L31.7231 12.3002Z" fill="#F7CD81"/>
<path d="M20.735 39.1978H8.98885C8.39412 39.1978 7.90756 38.7117 7.90756 38.1166C7.90756 37.5219 8.39412 37.0354 8.98885 37.0354H21.4513C22.1403 35.2785 23.0594 33.7913 24.1951 32.3045H8.98885C8.39412 32.3045 7.90756 31.8182 7.90756 31.2231C7.90756 30.6285 8.39412 30.1419 8.98885 30.1419H26.2497C29.4935 27.3033 33.7918 25.4924 38.482 25.4924C38.9279 25.4924 39.2932 25.5327 39.8339 25.5735V14.4626H31.7237C28.588 14.4626 26.0469 11.8945 26.0469 8.77207V0H5.31244C2.636 0 0.500488 2.18953 0.500488 4.87934V46.132C0.500488 48.8218 2.636 50.9573 5.31256 50.9573H21.5997C20.6673 48.7949 20.1537 46.3618 20.1537 43.8207C20.1399 42.2259 20.3564 40.6847 20.735 39.1978ZM8.98885 23.3836H22.6814C23.2761 23.3836 23.7627 23.8702 23.7627 24.4652C23.7627 25.06 23.2761 25.5465 22.6814 25.5465H8.98885C8.39412 25.5465 7.90756 25.06 7.90756 24.4654C7.90756 23.8702 8.39412 23.3837 8.98885 23.3837V23.3836Z" fill="#222222"/>
<path d="M38.4679 27.6958C29.5607 27.6958 22.3157 34.9403 22.3157 43.848C22.3157 52.7552 29.5607 60.0002 38.4679 60.0002C47.3755 60.0002 54.6205 52.7552 54.6205 43.848C54.6205 34.9403 47.3755 27.6958 38.4679 27.6958ZM47.1055 44.091C46.9028 44.2805 46.6322 44.3753 46.3754 44.3753C46.0916 44.3753 45.8078 44.2535 45.5912 44.037L39.563 37.5492V52.985C39.563 53.5801 39.0764 54.0666 38.4817 54.0666C37.8871 54.0666 37.4005 53.5801 37.4005 52.985V37.5359L31.3452 44.0238C30.9396 44.4563 30.2365 44.4834 29.804 44.0777C29.3718 43.6722 29.3443 42.9828 29.7499 42.5503L37.6706 34.0482C37.8734 33.8321 38.1572 33.7103 38.468 33.7103C38.7792 33.7103 39.0493 33.8322 39.2659 34.0482L47.1866 42.5501C47.5651 42.9966 47.5377 43.6859 47.1055 44.0912V44.091Z" fill="#F7CD81"/>
</g>
<defs>
<clipPath id="clip0_257_3084">
<rect width="60" height="60" fill="white" transform="translate(0.5)"/>
</clipPath>
</defs>
</svg>
