<svg width="24" height="25" viewBox="0 0 24 25" fill="none" xmlns="http://www.w3.org/2000/svg">
<g id="UI icon/download/light">
<path id="Union" fill-rule="evenodd" clip-rule="evenodd" d="M13.002 5.68066C13.002 5.12838 12.5543 4.68066 12.002 4.68066C11.4497 4.68066 11.002 5.12838 11.002 5.68066V13.7669L8.20906 10.974C7.81854 10.5834 7.18537 10.5834 6.79485 10.974C6.40432 11.3645 6.40432 11.9977 6.79485 12.3882L10.5878 16.1811C11.3688 16.9622 12.6352 16.9622 13.4162 16.1811L17.2072 12.3901C17.5977 11.9996 17.5977 11.3664 17.2072 10.9759C16.8167 10.5854 16.1835 10.5854 15.793 10.9759L13.002 13.7669V5.68066Z" fill="#222222"/>
<path id="Path 13 Copy 5 (Stroke)" fill-rule="evenodd" clip-rule="evenodd" d="M4 14.6812C4.55228 14.6812 5 15.1289 5 15.6812V17.6812C5 18.2334 5.44772 18.6812 6 18.6812H18C18.5523 18.6812 19 18.2334 19 17.6812V15.6812C19 15.1289 19.4477 14.6812 20 14.6812C20.5523 14.6812 21 15.1289 21 15.6812V17.6812C21 19.338 19.6569 20.6812 18 20.6812H6C4.34315 20.6812 3 19.338 3 17.6812V15.6812C3 15.1289 3.44772 14.6812 4 14.6812Z" fill="#222222"/>
</g>
</svg>
