<svg width="60" height="60" viewBox="0 0 60 60" fill="none" xmlns="http://www.w3.org/2000/svg">
<g id="Frame 25">
<rect width="60" height="60" rx="8" fill="#FEEFE7"/>
<g id="Group">
<g id="Group_2">
<path id="Vector" fill-rule="evenodd" clip-rule="evenodd" d="M22.2151 6H38.4712L52.8208 20.3523V47.9129C52.8208 51.2596 50.0831 54 46.7337 54H22.2152C18.8685 54 16.1309 51.2596 16.1309 47.9129V12.0871C16.1309 8.74041 18.8685 6 22.2151 6Z" fill="#E0773E"/>
<path id="Vector_2" fill-rule="evenodd" clip-rule="evenodd" d="M38.4712 6L52.8208 20.3523H40.0183C39.1652 20.3523 38.4712 19.6555 38.4712 18.8024V6ZM9.33594 26.4394H42.3939C43.1291 26.4394 43.7298 27.0401 43.7298 27.7753V39.9028C43.7298 40.638 43.1291 41.2387 42.3939 41.2387H9.33594C8.60075 41.2387 8 40.638 8 39.9028V27.7753C8 27.0401 8.60084 26.4394 9.33594 26.4394Z" fill="#FF945A"/>
</g>
<path id="Vector_3" d="M17.4506 28.9146H14.9571C14.7515 28.9146 14.5544 28.9962 14.4091 29.1415C14.2638 29.2869 14.1821 29.484 14.1821 29.6895V37.9903C14.1821 38.1958 14.2638 38.3929 14.4091 38.5383C14.5544 38.6836 14.7515 38.7652 14.9571 38.7652C15.1626 38.7652 15.3597 38.6836 15.505 38.5383C15.6504 38.3929 15.732 38.1958 15.732 37.9903V35.5584H17.4505C19.2528 35.5584 20.719 34.0922 20.719 32.29V32.1831C20.7191 30.3808 19.2529 28.9146 17.4506 28.9146ZM19.1693 32.2899C19.1693 33.2376 18.3983 34.0085 17.4506 34.0085H15.732V30.4643H17.4505C18.3982 30.4643 19.1692 31.2353 19.1692 32.1829V32.2899H19.1693ZM25.7899 28.9146H23.2964C23.0909 28.9146 22.8938 28.9962 22.7484 29.1415C22.6031 29.2869 22.5215 29.484 22.5215 29.6895V37.9903C22.5215 38.1958 22.6031 38.3929 22.7484 38.5383C22.8938 38.6836 23.0909 38.7652 23.2964 38.7652H25.7899C27.5921 38.7652 29.0584 37.299 29.0584 35.4968V32.1831C29.0584 30.3808 27.5921 28.9146 25.7899 28.9146ZM27.5085 35.4967C27.5085 36.4444 26.7375 37.2153 25.7899 37.2153H24.0713V30.4643H25.7899C26.7375 30.4643 27.5085 31.2353 27.5085 32.1829V35.4967ZM32.5613 30.4644V32.6096H36.1536C36.3591 32.6096 36.5562 32.6913 36.7015 32.8366C36.8469 32.9819 36.9285 33.179 36.9285 33.3846C36.9285 33.5901 36.8469 33.7872 36.7015 33.9325C36.5562 34.0778 36.3591 34.1595 36.1536 34.1595H32.5613V37.9903C32.5613 38.1958 32.4797 38.3929 32.3344 38.5383C32.189 38.6836 31.9919 38.7652 31.7864 38.7652C31.5809 38.7652 31.3838 38.6836 31.2384 38.5383C31.0931 38.3929 31.0115 38.1958 31.0115 37.9903V29.6895C31.0115 29.484 31.0931 29.2869 31.2384 29.1415C31.3838 28.9962 31.5809 28.9146 31.7864 28.9146H36.7734C36.979 28.9146 37.1761 28.9962 37.3214 29.1415C37.4667 29.2869 37.5484 29.484 37.5484 29.6895C37.5484 29.895 37.4667 30.0921 37.3214 30.2375C37.1761 30.3828 36.979 30.4644 36.7734 30.4644H32.5613Z" fill="white"/>
</g>
</g>
</svg>
