<svg width="80" height="81" viewBox="0 0 80 81" fill="none" xmlns="http://www.w3.org/2000/svg">
<path d="M40 80.5C62.0914 80.5 80 62.5914 80 40.5C80 18.4086 62.0914 0.5 40 0.5C17.9086 0.5 0 18.4086 0 40.5C0 62.5914 17.9086 80.5 40 80.5Z" fill="#FFD05B"/>
<path d="M48.1907 15.5H23.0479V65.5H60.4764V27.7857L48.1907 15.5Z" fill="white"/>
<path d="M48.1904 27.7857H60.4761L48.1904 15.5V27.7857Z" fill="#E6E9EE"/>
<path d="M19.5239 23.5H42.3969V36.2302H19.5239V23.5Z" fill="#324A5E"/>
<path d="M25.9047 27.0556C26.3809 27.4683 26.619 28.0873 26.619 28.9286C26.619 29.7699 26.3809 30.3889 25.873 30.7857C25.3809 31.1826 24.6349 31.373 23.619 31.373H22.7142V33.2778H21.1904V26.4365H23.6031C24.6666 26.4365 25.4285 26.6429 25.9047 27.0556ZM24.7777 29.7381C24.9682 29.5318 25.0476 29.2302 25.0476 28.8333C25.0476 28.4365 24.9206 28.1508 24.6825 27.9921C24.4444 27.8333 24.0793 27.7381 23.5714 27.7381H22.6984V30.0397H23.7301C24.2539 30.0556 24.6031 29.9445 24.7777 29.7381ZM32.0634 26.4365H33.5873V33.2778H32.0634V30.5794H29.3492V33.2778H27.8254V26.4365H29.3492V29.2937H32.0634V26.4365ZM40 27.0556C40.4761 27.4683 40.7142 28.0873 40.7142 28.9286C40.7142 29.7699 40.4761 30.3889 39.9682 30.7857C39.4761 31.1826 38.7301 31.373 37.7142 31.373H36.8095V33.2778H35.2857V26.4365H37.6984C38.746 26.4365 39.5238 26.6429 40 27.0556ZM38.873 29.7381C39.0634 29.5318 39.1428 29.2302 39.1428 28.8333C39.1428 28.4365 39.0158 28.1508 38.7777 27.9921C38.5396 27.8333 38.1746 27.7381 37.6666 27.7381H36.7936V30.0397H37.8254C38.3492 30.0556 38.6984 29.9445 38.873 29.7381Z" fill="white"/>
<path d="M35.4287 40.135H56.9843V43.516H35.4287V40.135Z" fill="#F1543F"/>
<path d="M26.5396 40.135H32.3015V43.516H26.5396V40.135Z" fill="#2C9984"/>
<path d="M26.5396 46.5476H48.0951V49.9286H26.5396V46.5476Z" fill="#F9B54C"/>
<path d="M51.2383 46.5476H57.0002V49.9286H51.2383V46.5476Z" fill="#2C9984"/>
<path d="M35.4287 52.9443H56.9843V56.3253H35.4287V52.9443Z" fill="#2B3B4E"/>
<path d="M26.5396 52.9443H32.3015V56.3253H26.5396V52.9443Z" fill="#2C9984"/>
<path d="M26.5396 59.3572H48.0951V62.7381H26.5396V59.3572Z" fill="#84DBFF"/>
<path d="M51.2383 59.3572H57.0002V62.7381H51.2383V59.3572Z" fill="#2C9984"/>
</svg>
