<svg width="24" height="24" viewBox="0 0 24 24" fill="none" xmlns="http://www.w3.org/2000/svg">
<g id="UI icon/attachment/light">
<path id="Path 85 (Stroke)" fill-rule="evenodd" clip-rule="evenodd" d="M18.6997 7.61415C17.5281 6.44258 15.6286 6.44258 14.4571 7.61415L8.80022 13.271C8.40969 13.6615 8.40969 14.2947 8.80022 14.6852C9.19074 15.0757 9.82391 15.0757 10.2144 14.6852L15.8713 9.02836C16.2618 8.63784 16.895 8.63784 17.2855 9.02836C17.676 9.41888 17.676 10.052 17.2855 10.4426L11.6286 16.0994C10.4571 17.271 8.55758 17.271 7.386 16.0994C6.21443 14.9279 6.21443 13.0284 7.386 11.8568L13.0429 6.19993C14.9955 4.24731 18.1613 4.24731 20.1139 6.19993C22.0665 8.15256 22.0665 11.3184 20.1139 13.271L14.4571 18.9279C11.7234 21.6615 7.29125 21.6615 4.55758 18.9279C1.82391 16.1942 1.82391 11.762 4.55758 9.02836L10.2144 3.37151C10.605 2.98098 11.2381 2.98098 11.6286 3.37151C12.0192 3.76203 12.0192 4.3952 11.6286 4.78572L5.97179 10.4426C4.01917 12.3952 4.01917 15.561 5.97179 17.5136C7.92441 19.4663 11.0902 19.4663 13.0429 17.5136L18.6997 11.8568C19.8713 10.6852 19.8713 8.78572 18.6997 7.61415Z" fill="#7E7E7E"/>
</g>
</svg>
