<svg width="33" height="32" viewBox="0 0 33 32" fill="none" xmlns="http://www.w3.org/2000/svg">
<g id="UI icon/box/filled">
<g id="Union">
<path d="M10.1568 2.66663H11.8833C12.2491 2.66663 12.491 3.04658 12.3363 3.37807L10.3337 7.6695C10.1513 8.06035 10.0175 8.4707 9.93443 8.89135C9.88507 9.14121 9.67362 9.33329 9.41894 9.33329H3.76119C3.43284 9.33329 3.16666 9.06711 3.16666 8.73876C3.16666 8.26571 3.35457 7.81204 3.68906 7.47755L7.32842 3.8382C8.07856 3.08805 9.09598 2.66663 10.1568 2.66663Z" fill="#E0773E"/>
<path d="M20.4335 9.33329C20.3916 9.14912 20.3302 8.96938 20.2498 8.7972L17.5235 2.95518C17.4414 2.77915 17.2647 2.66663 17.0704 2.66663H15.9295C15.7353 2.66663 15.5586 2.77915 15.4764 2.95518L12.7502 8.7972C12.6698 8.96938 12.6083 9.14912 12.5664 9.33329C12.5224 9.52682 12.5 9.72523 12.5 9.92489V14.6666C12.5 15.403 13.0969 16 13.8333 16H19.1667C19.903 16 20.5 15.403 20.5 14.6666V9.92489C20.5 9.72523 20.4776 9.52682 20.4335 9.33329Z" fill="#E0773E"/>
<path d="M23.0656 8.89135C23.1149 9.14121 23.3264 9.33329 23.581 9.33329H29.2388C29.5671 9.33329 29.8333 9.06711 29.8333 8.73876C29.8333 8.26571 29.6454 7.81204 29.3109 7.47755L25.6716 3.8382C24.9214 3.08805 23.904 2.66663 22.8431 2.66663H21.1167C20.7509 2.66663 20.5089 3.04658 20.6636 3.37807L22.6663 7.6695C22.8487 8.06035 22.9825 8.4707 23.0656 8.89135Z" fill="#E0773E"/>
<path d="M4.49999 12H9.33332C9.60947 12 9.83332 12.2238 9.83332 12.5V14.6666C9.83332 16.8758 11.6242 18.6666 13.8333 18.6666H19.1667C21.3758 18.6666 23.1667 16.8758 23.1667 14.6666V12.5C23.1667 12.2238 23.3905 12 23.6667 12H28.5C29.2364 12 29.8333 12.5969 29.8333 13.3333V25.3333C29.8333 27.5424 28.0425 29.3333 25.8333 29.3333H7.16666C4.95752 29.3333 3.16666 27.5424 3.16666 25.3333V13.3333C3.16666 12.5969 3.76361 12 4.49999 12Z" fill="#E0773E"/>
</g>
</g>
</svg>
