<svg width="32" height="32" viewBox="0 0 32 32" fill="none" xmlns="http://www.w3.org/2000/svg">
<g id="UI icon/box/filled">
<g id="Union">
<path d="M9.65687 2.66663H11.3833C11.7491 2.66663 11.9911 3.04658 11.8364 3.37807L9.83371 7.6695C9.65131 8.06035 9.51755 8.4707 9.43446 8.89135C9.3851 9.14121 9.17365 9.33329 8.91897 9.33329H3.26123C2.93287 9.33329 2.66669 9.06711 2.66669 8.73876C2.66669 8.26571 2.8546 7.81204 3.18909 7.47755L6.82845 3.8382C7.57859 3.08805 8.59601 2.66663 9.65687 2.66663Z" fill="#CF4749"/>
<path d="M19.9336 9.33329C19.8917 9.14912 19.8302 8.96938 19.7498 8.7972L17.0236 2.95518C16.9414 2.77915 16.7647 2.66663 16.5705 2.66663H15.4296C15.2353 2.66663 15.0586 2.77915 14.9765 2.95518L12.2502 8.7972C12.1698 8.96938 12.1084 9.14912 12.0665 9.33329C12.0224 9.52682 12 9.72523 12 9.92489V14.6666C12 15.403 12.597 16 13.3334 16H18.6667C19.4031 16 20 15.403 20 14.6666V9.92489C20 9.72523 19.9776 9.52682 19.9336 9.33329Z" fill="#CF4749"/>
<path d="M22.5656 8.89135C22.6149 9.14121 22.8264 9.33329 23.0811 9.33329H28.7388C29.0672 9.33329 29.3334 9.06711 29.3334 8.73876C29.3334 8.26571 29.1454 7.81204 28.8109 7.47755L25.1716 3.8382C24.4214 3.08805 23.404 2.66663 22.3432 2.66663H20.6168C20.2509 2.66663 20.009 3.04658 20.1637 3.37807L22.1663 7.6695C22.3487 8.06035 22.4825 8.4707 22.5656 8.89135Z" fill="#CF4749"/>
<path d="M4.00002 12H8.83335C9.1095 12 9.33335 12.2238 9.33335 12.5V14.6666C9.33335 16.8758 11.1242 18.6666 13.3334 18.6666H18.6667C20.8758 18.6666 22.6667 16.8758 22.6667 14.6666V12.5C22.6667 12.2238 22.8905 12 23.1667 12H28C28.7364 12 29.3334 12.5969 29.3334 13.3333V25.3333C29.3334 27.5424 27.5425 29.3333 25.3334 29.3333H6.66669C4.45755 29.3333 2.66669 27.5424 2.66669 25.3333V13.3333C2.66669 12.5969 3.26364 12 4.00002 12Z" fill="#CF4749"/>
</g>
</g>
</svg>
