<svg width="60" height="60" viewBox="0 0 60 60" fill="none" xmlns="http://www.w3.org/2000/svg">
<g id="Frame">
<g id="Group">
<path id="Vector" d="M31.2233 12.3H37.8466L27.709 1.63559V8.77207C27.709 10.7053 29.277 12.3001 31.2232 12.3001L31.2233 12.3Z" fill="#F7CD81"/>
<path id="Vector_2" d="M20.235 39.1978H8.48885C7.89412 39.1978 7.40756 38.7117 7.40756 38.1166C7.40756 37.5219 7.89412 37.0354 8.48885 37.0354H20.9513C21.6403 35.2785 22.5594 33.7913 23.6951 32.3045H8.48885C7.89412 32.3045 7.40756 31.8182 7.40756 31.2231C7.40756 30.6285 7.89412 30.1419 8.48885 30.1419H25.7497C28.9935 27.3033 33.2918 25.4924 37.982 25.4924C38.4279 25.4924 38.7932 25.5327 39.3339 25.5735V14.4626H31.2237C28.088 14.4626 25.5469 11.8945 25.5469 8.77207V0H4.81244C2.136 0 0.000488281 2.18953 0.000488281 4.87934V46.132C0.000488281 48.8218 2.136 50.9573 4.81256 50.9573H21.0997C20.1673 48.7949 19.6537 46.3618 19.6537 43.8207C19.6399 42.2259 19.8564 40.6847 20.235 39.1978ZM8.48885 23.3836H22.1814C22.7761 23.3836 23.2627 23.8702 23.2627 24.4652C23.2627 25.06 22.7761 25.5465 22.1814 25.5465H8.48885C7.89412 25.5465 7.40756 25.06 7.40756 24.4654C7.40756 23.8702 7.89412 23.3837 8.48885 23.3837V23.3836Z" fill="#222222"/>
<path id="Vector_3" d="M37.9676 27.6956C29.0604 27.6956 21.8154 34.9401 21.8154 43.8477C21.8154 52.7549 29.0604 59.9999 37.9676 59.9999C46.8753 59.9999 54.1203 52.7549 54.1203 43.8477C54.1203 34.9401 46.8753 27.6956 37.9676 27.6956ZM46.6053 44.0908C46.4025 44.2803 46.132 44.3751 45.8752 44.3751C45.5914 44.3751 45.3075 44.2532 45.091 44.0368L39.0627 37.5489V52.9847C39.0627 53.5798 38.5762 54.0664 37.9814 54.0664C37.3868 54.0664 36.9003 53.5798 36.9003 52.9847V37.5357L30.845 44.0235C30.4394 44.4561 29.7362 44.4831 29.3037 44.0774C28.8715 43.672 28.8441 42.9825 29.2497 42.55L37.1704 34.0479C37.3731 33.8318 37.657 33.7101 37.9677 33.7101C38.279 33.7101 38.5491 33.832 38.7657 34.0479L46.6864 42.5499C47.0649 42.9964 47.0375 43.6857 46.6053 44.0909V44.0908Z" fill="#F7CD81"/>
</g>
</g>
</svg>
